<svg width="14" height="14" viewBox="0 0 14 14" fill="none" xmlns="http://www.w3.org/2000/svg">
<path fill-rule="evenodd" clip-rule="evenodd" d="M13.3641 0.636033C12.9736 0.245508 12.3404 0.245509 11.9499 0.636033L7.00011 5.58579L2.05037 0.636045C1.65985 0.245521 1.02668 0.245521 0.636157 0.636045C0.245633 1.02657 0.245633 1.65973 0.636158 2.05026L5.5859 7L0.636155 11.9497C0.245631 12.3403 0.245631 12.9734 0.636155 13.364C1.02668 13.7545 1.65984 13.7545 2.05037 13.364L7.00011 8.41421L11.9499 13.364C12.3404 13.7545 12.9736 13.7545 13.3641 13.364C13.7546 12.9734 13.7546 12.3403 13.3641 11.9498L8.41432 7L13.3641 2.05025C13.7546 1.65972 13.7546 1.02656 13.3641 0.636033Z" fill="white"/>
</svg>
