<svg width="14" height="18" viewBox="0 0 14 18" fill="none" xmlns="http://www.w3.org/2000/svg">
<path fill-rule="evenodd" clip-rule="evenodd" d="M1 0C0.447715 0 0 0.447716 0 1V17C0 17.5523 0.447716 18 1 18H13C13.5523 18 14 17.5523 14 17V1C14 0.447715 13.5523 0 13 0H1ZM2.5 4C2.22386 4 2 4.22386 2 4.5V5.5C2 5.77614 2.22386 6 2.5 6H11.5C11.7761 6 12 5.77614 12 5.5V4.5C12 4.22386 11.7761 4 11.5 4H2.5ZM2 8.5C2 8.22386 2.22386 8 2.5 8H11.5C11.7761 8 12 8.22386 12 8.5V9.5C12 9.77614 11.7761 10 11.5 10H2.5C2.22386 10 2 9.77614 2 9.5V8.5ZM2.5 12C2.22386 12 2 12.2239 2 12.5V13.5C2 13.7761 2.22386 14 2.5 14H8.5C8.77614 14 9 13.7761 9 13.5V12.5C9 12.2239 8.77614 12 8.5 12H2.5Z" fill="white"/>
</svg>
