<svg width="14" height="14" viewBox="0 0 14 14" fill="none" xmlns="http://www.w3.org/2000/svg">
<path fill-rule="evenodd" clip-rule="evenodd" d="M8.49999 1.5C8.49999 2.32843 7.82842 3 6.99999 3C6.17156 3 5.49999 2.32843 5.49999 1.5C5.49999 0.671573 6.17156 0 6.99999 0C7.82842 0 8.49999 0.671573 8.49999 1.5ZM5 5.5C5 4.94772 5.44772 4.5 6 4.5H8C8.55228 4.5 9 4.94772 9 5.5V9.5C9 9.77614 8.77614 10 8.5 10H8.00001V13C8.00001 13.5523 7.55229 14 7.00001 14C6.44773 14 6.00001 13.5523 6.00001 13V10H5.5C5.22386 10 5 9.77614 5 9.5V5.5ZM3.49999 2.5C3.49999 3.32843 2.82842 4 1.99999 4C1.17157 4 0.499992 3.32843 0.499992 2.5C0.499992 1.67157 1.17157 1 1.99999 1C2.82842 1 3.49999 1.67157 3.49999 2.5ZM0 6C0 5.44772 0.447715 5 1 5H3V8.99548L3.00001 9V13C3.00001 13.5523 2.55229 14 2.00001 14C1.44773 14 1.00001 13.5523 1.00001 13V10H0.5C0.223858 10 0 9.77614 0 9.5V6ZM12 4C11.1716 4 10.5 3.32843 10.5 2.5C10.5 1.67157 11.1716 1 12 1C12.8284 1 13.5 1.67157 13.5 2.5C13.5 3.32843 12.8284 4 12 4ZM13 5C13.5523 5 14 5.44772 14 6V9.5C14 9.77614 13.7761 10 13.5 10H13V13C13 13.5523 12.5523 14 12 14C11.4477 14 11 13.5523 11 13V9L11 8.99605V5H13Z" fill="white"/>
</svg>
